# xmcd
#
# Track frame offsets:
#	150
#	15006
#	31756
#	48335
#	64051
#	79371
#	97529
#	111725
#	132076
#	144533
#	161409
#	176896
#	195333
#	211417
#	226076
#	243768
#	262607
#
# Disc length: 3699 seconds
#
# Revision: 3
# Processed by: cddbd v1.5.2PL0 Copyright (c) Steve Scherf et al.
# Submitted via: audiograbber 1.83.01
#
DISCID=cc0e7111
DTITLE=Randy Travis - 25th Anniversary Celebration
DYEAR=2011
DGENRE=Country
TTITLE0=Everything And All w Brad Paisley
TTITLE1=A Few Ole Country Boys w Jamey Johnson
TTITLE2=Forever And Ever, Amen w Zac Brown Band
TTITLE3=He Walked On Water w Kenny Chesney
TTITLE4=T.I.M.E. w Josh Turner
TTITLE5=Love Looks Good On You w Kristin Chenowth
TTITLE6=Better Class Of Losers_She's Got The Rhythm (And I Got The Blues) Medle
TTITLE6=y w Alan Jackson
TTITLE7=More Life w Don Henley
TTITLE8=Can't Hurt A Man w Tim McGraw
TTITLE9=Promises w Shelby Lynne
TTITLE10=Is It Still Over w Carrie Underwood
TTITLE11=Road To Surrender w Kris Kristofferson and Willie Nelson
TTITLE12=Diggin' Up Bones w John Anderson
TTITLE13=Someone You Never Knew w  Eamonn McCrystal
TTITLE14=Too Much w James Otto
TTITLE15=Didn't We Shine w G. Jones, L. Morgan, R. Price, C. Smith, J. Stampley
TTITLE15=and G. Watson
TTITLE16=Everything And All
EXTD=
EXTT0=
EXTT1=
EXTT2=
EXTT3=
EXTT4=
EXTT5=
EXTT6=
EXTT7=
EXTT8=
EXTT9=
EXTT10=
EXTT11=
EXTT12=
EXTT13=
EXTT14=
EXTT15=
EXTT16=
PLAYORDER=
